<svg width="70" height="30" viewBox="0 0 70 30" fill="none" xmlns="http://www.w3.org/2000/svg">
<path d="M169.2 29.9221H0L0.6 29.1221C6.2 21.2221 20 16.3221 38.3 15.6221C40.9 10.2221 56 1.22206 69.9 0.222061C77.1 -0.277939 101.6 -0.977939 116.6 11.0221C122.5 15.7221 130 17.9221 139.6 17.6221C140.3 17.6221 141.1 17.5221 141.9 17.5221C149.8 17.2221 160.7 16.8221 165.9 21.7221C167.9 23.6221 169 26.2221 169.1 29.4221L169.2 29.9221ZM2 28.9221H168.1C167.9 26.2221 167 24.1221 165.3 22.5221C160.3 17.8221 149.7 18.2221 142 18.5221C141.2 18.5221 140.4 18.6221 139.7 18.6221C129.9 18.9221 122.2 16.7221 116 11.8221C101.2 0.0220613 77.1 0.722061 70 1.22206C61.4 1.82206 53.7 5.32206 49.9 7.32206C44.4 10.2221 40.1 13.8221 39.1 16.2221L39 16.6221H38.7C21.1 17.2221 7.8 21.7221 2 28.9221Z" fill="#FEBF32"/>
</svg>
