<svg width="127" height="65" viewBox="0 0 127 65" fill="none" xmlns="http://www.w3.org/2000/svg">
<path d="M127 64.0472H-169L-167.95 62.3348C-158.154 45.4251 -134.012 34.9368 -101.998 33.4385C-97.4492 21.88 -71.0331 2.61578 -46.716 0.475314C-34.121 -0.594919 8.74 -2.09325 34.981 23.5924C45.303 33.6526 58.423 38.3616 75.218 37.7194C76.442 37.7194 77.842 37.5054 79.241 37.5054C93.061 36.8633 112.13 36.0071 121.227 46.4954C124.726 50.5622 126.65 56.1275 126.825 62.977L127 64.0472ZM-165.501 61.9067H125.076C124.726 56.1275 123.151 51.6325 120.177 48.2077C111.43 38.1475 92.887 39.0037 79.416 39.6459C78.017 39.6459 76.617 39.8599 75.392 39.8599C58.248 40.502 44.778 35.793 33.931 25.3047C8.04 0.0472221 -34.121 1.54555 -46.541 2.61578C-61.586 3.90006 -75.0567 11.3917 -81.7045 15.6726C-91.3262 21.88 -98.8487 29.5857 -100.598 34.7228L-100.773 35.579H-101.298C-132.087 36.8633 -155.355 46.4954 -165.501 61.9067Z" fill="#ED7333"/>
</svg>
