<svg width="148" height="65" viewBox="0 0 148 65" fill="none" xmlns="http://www.w3.org/2000/svg">
<path d="M296 64.0472H0L1.04965 62.3348C10.8463 45.4251 34.9882 34.9368 67.0024 33.4385C71.5508 21.88 97.9669 2.61578 122.284 0.475314C134.879 -0.594919 177.74 -2.09325 203.981 23.5924C214.303 33.6526 227.423 38.3616 244.218 37.7194C245.442 37.7194 246.842 37.5054 248.241 37.5054C262.061 36.8633 281.13 36.0071 290.227 46.4954C293.726 50.5622 295.65 56.1275 295.825 62.977L296 64.0472ZM3.49882 61.9067H294.076C293.726 56.1275 292.151 51.6325 289.177 48.2077C280.43 38.1475 261.887 39.0037 248.416 39.6459C247.017 39.6459 245.617 39.8599 244.392 39.8599C227.248 40.502 213.778 35.793 202.931 25.3047C177.04 0.0472221 134.879 1.54555 122.459 2.61578C107.414 3.90006 93.9433 11.3917 87.2955 15.6726C77.6738 21.88 70.1513 29.5857 68.4019 34.7228L68.2269 35.579H67.7021C36.9125 36.8633 13.6454 46.4954 3.49882 61.9067Z" fill="#FEBF32"/>
</svg>
