<svg width="58" height="77" viewBox="0 0 58 77" fill="none" xmlns="http://www.w3.org/2000/svg">
<path d="M55.4949 57.9344L29.0713 75.5943C28.469 76.0001 27.7863 76.2094 27.0754 76.2061C26.3644 76.2028 25.6438 75.9871 24.9685 75.5753C24.2839 75.1621 23.6624 74.5609 23.1515 73.8175C22.6405 73.0741 22.2535 72.2082 22.0198 71.2855C17.9602 55.5037 11.1977 40.7486 2.2795 28.214C1.75624 27.4849 1.3542 26.629 1.10396 25.7114C0.853721 24.7939 0.761873 23.8388 0.835419 22.9189C0.905104 22.0091 1.13637 21.1572 1.51163 20.428C1.88689 19.6987 2.39624 19.1113 3.00095 18.7105L29.4245 1.05065C30.3782 0.418468 31.5153 0.277615 32.6334 0.65317C33.7514 1.02872 34.7779 1.8963 35.5298 3.10138C44.485 17.6769 51.8261 33.6947 57.2981 50.5982C57.7443 52.0076 57.808 53.5186 57.4778 54.8621C57.1476 56.2056 56.4449 57.2943 55.4949 57.9344V57.9344Z" fill="#F2F2F2"/>
</svg>
